<?xml version="1.0" encoding="UTF-8" standalone="no"?>
<svg
   xmlns:dc="http://purl.org/dc/elements/1.1/"
   xmlns:cc="http://creativecommons.org/ns#"
   xmlns:rdf="http://www.w3.org/1999/02/22-rdf-syntax-ns#"
   xmlns:svg="http://www.w3.org/2000/svg"
   xmlns="http://www.w3.org/2000/svg"
   viewBox="0 0 447.12 86.853333"
   height="86.853333"
   width="447.12"
   xml:space="preserve"
   id="svg2"
   version="1.1"><metadata
     id="metadata8"><rdf:RDF><cc:Work
         rdf:about=""><dc:format>image/svg+xml</dc:format><dc:type
           rdf:resource="http://purl.org/dc/dcmitype/StillImage" /></cc:Work></rdf:RDF></metadata><defs
     id="defs6" /><g
     transform="matrix(1.3333333,0,0,-1.3333333,0,86.853333)"
     id="g10"><g
       transform="scale(0.1)"
       id="g12"><path
         id="path14"
         style="fill:#d11c2f;fill-opacity:1;fill-rule:nonzero;stroke:none"
         d="m 1369.73,358.535 c -12.13,0 -22.29,-2.762 -30.49,-8.289 -8.21,-5.527 -14.9,-12.668 -20.07,-21.394 -5.17,-8.75 -8.82,-18.379 -10.97,-28.895 -2.13,-10.527 -3.2,-20.957 -3.2,-31.289 0,-9.992 1.07,-20.168 3.2,-30.508 2.15,-10.344 5.63,-19.707 10.44,-28.086 4.81,-8.39 11.32,-15.246 19.53,-20.597 8.2,-5.352 18.19,-8.016 29.96,-8.016 18.19,0 32.18,5.078 41.99,15.234 9.81,10.176 15.97,23.809 18.47,40.926 h 73.29 c -5,-36.726 -19.26,-64.726 -42.8,-83.992 -23.54,-19.258 -53.68,-28.887 -90.42,-28.887 -20.69,0 -39.68,3.477 -56.97,10.438 -17.31,6.945 -32.02,16.66 -44.14,29.16 -12.13,12.473 -21.59,27.363 -28.36,44.66 -6.78,17.305 -10.16,36.289 -10.16,56.98 0,21.407 3.11,41.29 9.36,59.661 6.24,18.359 15.42,34.238 27.55,47.605 12.12,13.387 26.93,23.817 44.41,31.301 17.46,7.496 37.45,11.246 59.92,11.246 16.4,0 32.18,-2.148 47.34,-6.426 15.16,-4.285 28.71,-10.797 40.66,-19.523 11.95,-8.75 21.67,-19.629 29.16,-32.641 7.49,-13.023 11.78,-28.453 12.85,-46.281 h -74.37 c -5,31.75 -23.73,47.613 -56.18,47.613" /><path
         id="path16"
         style="fill:#d11c2f;fill-opacity:1;fill-rule:nonzero;stroke:none"
         d="m 1601.92,237.359 c 2.14,-10.519 5.79,-19.972 10.96,-28.359 5.17,-8.379 12.04,-15.07 20.6,-20.059 8.56,-5 19.26,-7.48 32.1,-7.48 12.85,0 23.62,2.48 32.37,7.48 8.74,4.989 15.69,11.68 20.87,20.059 5.16,8.387 8.83,17.84 10.97,28.359 2.14,10.516 3.21,21.317 3.21,32.371 0,11.055 -1.07,21.934 -3.21,32.637 -2.14,10.696 -5.81,20.145 -10.97,28.352 -5.18,8.203 -12.13,14.89 -20.87,20.062 -8.75,5.172 -19.52,7.754 -32.37,7.754 -12.84,0 -23.54,-2.582 -32.1,-7.754 -8.56,-5.172 -15.43,-11.859 -20.6,-20.062 -5.17,-8.207 -8.82,-17.656 -10.96,-28.352 -2.14,-10.703 -3.21,-21.582 -3.21,-32.637 0,-11.054 1.07,-21.855 3.21,-32.371 z m -69.02,92.555 c 6.77,18.016 16.4,33.344 28.89,46.008 12.48,12.656 27.46,22.48 44.95,29.43 17.46,6.957 37.08,10.441 58.84,10.441 21.76,0 41.47,-3.484 59.13,-10.441 17.66,-6.95 32.71,-16.774 45.2,-29.43 12.47,-12.664 22.11,-27.992 28.89,-46.008 6.77,-18.016 10.17,-38.074 10.17,-60.184 0,-22.128 -3.4,-42.097 -10.17,-59.921 -6.78,-17.832 -16.42,-33.086 -28.89,-45.743 -12.49,-12.664 -27.54,-22.39 -45.2,-29.16 -17.66,-6.765 -37.37,-10.164 -59.13,-10.164 -21.76,0 -41.38,3.399 -58.84,10.164 -17.49,6.77 -32.47,16.496 -44.95,29.16 -12.49,12.657 -22.12,27.911 -28.89,45.743 -6.78,17.824 -10.16,37.793 -10.16,59.921 0,22.11 3.38,42.168 10.16,60.184" /><path
         id="path18"
         style="fill:#d11c2f;fill-opacity:1;fill-rule:nonzero;stroke:none"
         d="m 1917.03,408.297 v -38.516 h 1.6 c 9.64,16.043 22.11,27.723 37.46,35.035 15.33,7.305 31.02,10.977 47.08,10.977 20.33,0 37.01,-2.773 50.03,-8.301 13.01,-5.527 23.26,-13.195 30.76,-23.008 7.49,-9.812 12.74,-21.754 15.78,-35.839 3.03,-14.098 4.55,-29.696 4.55,-46.813 V 131.695 h -75.98 v 156.231 c 0,22.812 -3.56,39.851 -10.69,51.082 -7.14,11.238 -19.8,16.851 -37.99,16.851 -20.69,0 -35.67,-6.152 -44.94,-18.445 -9.28,-12.312 -13.92,-32.566 -13.92,-60.73 V 131.695 h -75.96 v 276.602 h 72.22" /><path
         id="path20"
         style="fill:#d11c2f;fill-opacity:1;fill-rule:nonzero;stroke:none"
         d="m 2220.91,408.297 v -38.516 h 1.6 c 9.64,16.043 22.11,27.723 37.45,35.035 15.33,7.305 31.03,10.977 47.08,10.977 20.33,0 37,-2.773 50.03,-8.301 13.02,-5.527 23.26,-13.195 30.76,-23.008 7.48,-9.812 12.75,-21.754 15.78,-35.839 3.03,-14.098 4.56,-29.696 4.56,-46.813 V 131.695 h -75.98 v 156.231 c 0,22.812 -3.57,39.851 -10.69,51.082 -7.14,11.238 -19.8,16.851 -37.99,16.851 -20.7,0 -35.68,-6.152 -44.94,-18.445 -9.29,-12.312 -13.92,-32.566 -13.92,-60.73 V 131.695 h -75.97 v 276.602 h 72.23" /><path
         id="path22"
         style="fill:#d11c2f;fill-opacity:1;fill-rule:nonzero;stroke:none"
         d="m 2619.75,343.566 c -9.09,9.981 -22.92,14.969 -41.47,14.969 -12.13,0 -22.19,-2.047 -30.22,-6.14 -8.03,-4.11 -14.44,-9.196 -19.27,-15.25 -4.8,-6.075 -8.2,-12.493 -10.16,-19.258 -1.97,-6.778 -3.13,-12.844 -3.47,-18.196 h 123.58 c -3.57,19.258 -9.89,33.883 -18.99,43.875 z m -85.86,-145.523 c 11.4,-11.055 27.81,-16.582 49.22,-16.582 15.33,0 28.52,3.816 39.59,11.492 11.04,7.668 17.82,15.781 20.32,24.348 h 66.88 c -10.71,-33.176 -27.11,-56.906 -49.22,-71.153 -22.12,-14.269 -48.87,-21.406 -80.26,-21.406 -21.75,0 -41.38,3.477 -58.85,10.438 -17.47,6.945 -32.28,16.847 -44.4,29.687 -12.13,12.844 -21.49,28.176 -28.09,46.016 -6.6,17.824 -9.9,37.453 -9.9,58.847 0,20.676 3.39,39.942 10.17,57.782 6.77,17.832 16.4,33.25 28.89,46.273 12.47,13.016 27.37,23.278 44.67,30.762 17.3,7.496 36.47,11.246 57.51,11.246 23.55,0 44.05,-4.559 61.53,-13.652 17.48,-9.098 31.83,-21.317 43.07,-36.649 11.23,-15.336 19.35,-32.816 24.35,-52.429 4.99,-19.61 6.76,-40.129 5.34,-61.524 h -199.55 c 1.07,-24.609 7.3,-42.441 18.73,-53.496" /><path
         id="path24"
         style="fill:#d11c2f;fill-opacity:1;fill-rule:nonzero;stroke:none"
         d="m 2878.42,358.535 c -12.13,0 -22.3,-2.762 -30.49,-8.289 -8.21,-5.527 -14.9,-12.668 -20.08,-21.394 -5.16,-8.75 -8.81,-18.379 -10.95,-28.895 -2.14,-10.527 -3.22,-20.957 -3.22,-31.289 0,-9.992 1.08,-20.168 3.22,-30.508 2.14,-10.344 5.61,-19.707 10.44,-28.086 4.8,-8.39 11.3,-15.246 19.52,-20.597 8.2,-5.352 18.19,-8.016 29.96,-8.016 18.18,0 32.19,5.078 41.99,15.234 9.81,10.176 15.96,23.809 18.47,40.926 h 73.29 c -5,-36.726 -19.26,-64.726 -42.8,-83.992 -23.55,-19.258 -53.69,-28.887 -90.42,-28.887 -20.69,0 -39.68,3.477 -56.98,10.438 -17.29,6.945 -32.01,16.66 -44.14,29.16 -12.13,12.473 -21.58,27.363 -28.35,44.66 -6.78,17.305 -10.16,36.289 -10.16,56.98 0,21.407 3.11,41.29 9.35,59.661 6.24,18.359 15.43,34.238 27.56,47.605 12.12,13.387 26.92,23.817 44.41,31.301 17.47,7.496 37.45,11.246 59.92,11.246 16.4,0 32.17,-2.148 47.34,-6.426 15.16,-4.285 28.71,-10.797 40.66,-19.523 11.95,-8.75 21.67,-19.629 29.16,-32.641 7.5,-13.023 11.77,-28.453 12.85,-46.281 h -74.37 c -5,31.75 -23.73,47.613 -56.18,47.613" /><path
         id="path26"
         style="fill:#d11c2f;fill-opacity:1;fill-rule:nonzero;stroke:none"
         d="m 3191.93,408.297 v -50.824 h -55.64 V 220.504 c 0,-12.832 2.13,-21.387 6.42,-25.676 4.27,-4.277 12.84,-6.426 25.68,-6.426 4.28,0 8.37,0.176 12.3,0.539 3.92,0.352 7.67,0.887 11.24,1.61 v -58.856 c -6.42,-1.074 -13.56,-1.777 -21.4,-2.14 -7.86,-0.352 -15.52,-0.528 -23.01,-0.528 -11.77,0 -22.93,0.801 -33.44,2.403 -10.52,1.613 -19.8,4.718 -27.82,9.367 -8.03,4.629 -14.35,11.23 -18.98,19.793 -4.65,8.555 -6.97,19.797 -6.97,33.703 v 163.18 h -46.01 v 50.824 h 46.01 v 82.918 h 75.98 v -82.918 h 55.64" /><path
         id="path28"
         style="fill:#d11c2f;fill-opacity:1;fill-rule:nonzero;stroke:none"
         d="m 368.703,341.039 c 45.703,-10.723 82.379,-44.578 82.379,-98.75 0,-69.394 -58.121,-110.594 -148.398,-110.594 H 98.4258 V 526.676 H 298.738 c 69.965,0 130.336,-25.953 130.336,-103.824 0,-41.754 -31.031,-69.399 -60.371,-80.688 z m -103.824,31.598 c 27.648,0 42.883,11.285 42.883,31.035 0,21.441 -11.848,32.164 -40.059,32.164 h -47.961 v -63.199 z m 20.312,-150.094 c 28.782,0 44.579,9.59 44.579,31.594 0,19.754 -14.676,30.476 -47.399,30.476 h -62.629 v -62.07 h 65.449" /><path
         id="path30"
         style="fill:#d11c2f;fill-opacity:1;fill-rule:nonzero;stroke:none"
         d="M 768.336,332.012 V 526.676 H 886.828 V 131.695 H 779.621 L 614.859,340.469 H 613.73 V 131.695 H 494.109 V 526.676 H 613.73 L 766.648,332.012 h 1.688" /><path
         id="path32"
         style="fill:#d11c2f;fill-opacity:1;fill-rule:nonzero;stroke:none"
         d="M 937.918,526.68 H 1059.24 L 937.918,405.863 Z" /><path
         id="path34"
         style="fill:#d11c2f;fill-opacity:1;fill-rule:nonzero;stroke:none"
         d="M 937.918,359.625 1059.24,480.441 V 131.695 H 937.918 v 227.93" /><path
         id="path36"
         style="fill:#d11c2f;fill-opacity:1;fill-rule:nonzero;stroke:none"
         d="m 3216.3,143.609 c 0.93,-2.285 2.2,-4.269 3.82,-5.949 1.62,-1.68 3.52,-2.996 5.73,-3.953 2.21,-0.957 4.6,-1.437 7.18,-1.437 2.54,0 4.9,0.48 7.09,1.437 2.19,0.957 4.09,2.273 5.71,3.953 1.62,1.68 2.89,3.664 3.81,5.949 0.92,2.286 1.38,4.774 1.38,7.469 0,2.617 -0.46,5.059 -1.38,7.324 -0.92,2.266 -2.19,4.231 -3.81,5.891 -1.62,1.66 -3.52,2.969 -5.71,3.926 -2.19,0.957 -4.55,1.426 -7.09,1.426 -2.58,0 -4.97,-0.469 -7.18,-1.426 -2.21,-0.957 -4.11,-2.266 -5.73,-3.926 -1.62,-1.66 -2.89,-3.625 -3.82,-5.891 -0.91,-2.265 -1.38,-4.707 -1.38,-7.324 0,-2.695 0.47,-5.183 1.38,-7.469 z m -3.59,16.082 c 1.16,2.657 2.76,4.961 4.77,6.914 2.01,1.946 4.35,3.489 7.03,4.602 2.68,1.113 5.51,1.66 8.52,1.66 3.01,0 5.84,-0.547 8.5,-1.66 2.65,-1.113 4.98,-2.656 6.97,-4.602 1.99,-1.953 3.57,-4.257 4.74,-6.914 1.18,-2.656 1.76,-5.527 1.76,-8.613 0,-3.164 -0.58,-6.082 -1.76,-8.758 -1.17,-2.675 -2.75,-5 -4.74,-6.972 -1.99,-1.973 -4.32,-3.508 -6.97,-4.602 -2.66,-1.094 -5.49,-1.641 -8.5,-1.641 -3.01,0 -5.84,0.547 -8.52,1.641 -2.68,1.094 -5.02,2.629 -7.03,4.602 -2.01,1.972 -3.61,4.297 -4.77,6.972 -1.17,2.676 -1.76,5.594 -1.76,8.758 0,3.086 0.59,5.957 1.76,8.613" /><path
         id="path38"
         style="fill:#d11c2f;fill-opacity:1;fill-rule:nonzero;stroke:none"
         d="m 3232.53,152.027 h -4.16 v 8.145 h 5.27 c 0.67,0 1.34,-0.059 2.03,-0.149 0.68,-0.097 1.28,-0.281 1.81,-0.554 0.53,-0.285 0.96,-0.676 1.29,-1.172 0.33,-0.508 0.5,-1.192 0.5,-2.051 0,-1.016 -0.19,-1.808 -0.56,-2.375 -0.37,-0.566 -0.87,-0.984 -1.49,-1.258 -0.63,-0.273 -1.34,-0.441 -2.14,-0.5 -0.8,-0.058 -1.65,-0.086 -2.55,-0.086 z m 3.6,-2.48 c 1.86,0.183 3.41,0.801 4.66,1.844 1.25,1.035 1.87,2.675 1.87,4.902 0,2.383 -0.71,4.16 -2.13,5.332 -1.42,1.184 -3.59,1.77 -6.55,1.77 h -9.59 V 138.59 h 3.86 v 10.672 h 4.09 l 6.74,-10.672 h 4.15 l -7.1,10.957" /></g></g></svg>